<svg data-v-0dd9719b="" version="1.0" xmlns="http://www.w3.org/2000/svg" xmlns:xlink="http://www.w3.org/1999/xlink" width="100%" height="100%" viewBox="0 0 340.000000 250.000000" preserveAspectRatio="xMidYMid meet" color-interpolation-filters="sRGB" style="margin: auto;"> <rect data-v-0dd9719b="" x="0" y="0" width="100%" height="100%" fill="#fff" fill-opacity="1" class="background"></rect> <rect data-v-0dd9719b="" x="0" y="0" width="100%" height="100%" fill="url(#watermark)" fill-opacity="1" class="watermarklayer"></rect> <g data-v-0dd9719b="" fill="#505050" class="icon-text-wrapper icon-svg-group iconsvg" transform="translate(65.45500183105469,95)"><g class="iconsvg-imagesvg" transform="translate(0,0)"><g><rect fill="#505050" fill-opacity="0" stroke-width="2" x="0" y="0" width="60" height="60" class="image-rect"></rect> <svg x="0" y="0" width="60" height="60" filtersec="colorsb666901884" class="image-svg-svg primary" style="overflow: visible;"><svg xmlns="http://www.w3.org/2000/svg" viewBox="0 0 159 159"><g><g><path fill="#0064d2" d="M25.07 104.57l29.98-29.98L79.5 99.04l49.52-49.52L79.5 0 44.01 35.49V24.65h-19.6v30.44L0 79.5l25.07 25.07z"></path><path fill="#8dc73f" d="M159 79.5l-20.44-20.44-59.06 59.06-24.45-24.45-20.44 20.44L79.5 159 159 79.5z"></path></g></g></svg></svg> <!----></g></g> <g transform="translate(67,5.228748321533203)"><g data-gra="path-name" fill-rule="" class="tp-name iconsvg-namesvg" transform="translate(0,0)"><g transform="scale(1)"><g><path d="M9.18-22.57L2.45-22.57 1.55-28.58 8.32-28.58 9.18-22.57ZM19.33-28.58L18.36-22.57 11.63-22.57 12.53-28.58 19.33-28.58ZM34.78-25.78L34.78-16.02 34.31-14.15 34.78-12.38 34.78-0.14 28.58-0.14 28.58-2.56 29.59-2.56 29.59-12.96 28.08-12.96 28.08 5.62 21.35 5.62 21.35-28.04 32.54-28.04Q33.44-28.04 34.11-27.38 34.78-26.71 34.78-25.78L34.78-25.78ZM29.59-15.41L29.59-24.91Q29.59-25.67 28.84-25.67L28.84-25.67 28.08-25.67 28.08-15.41 29.59-15.41ZM14.47-18.65L14.47-11.66 20.02-11.66 20.02-9.22 15.16-9.22 19.94 5.62 12.64 5.62 10.44-1.66 8.5 5.62 1.22 5.62 5.51-9.22 0.83-9.22 0.83-11.66 6.26-11.66 6.26-18.65 1.58-18.65 1.58-21.1 19.3-21.1 19.3-18.65 14.47-18.65ZM47.63 5.69L40.72 5.69 42.44-28.87 49.07-28.87 47.63 5.69ZM70.42-28.87L70.42 5.69 63.58 5.69 63.58-28.87 70.42-28.87ZM59.4-24.91L59.4 2.34 52.45 2.34 52.45-24.91 59.4-24.91ZM40.75-19.73L40.39-3.78 37.62-3.78 37.98-19.73 40.75-19.73ZM51.7-19.73L51.7-3.78 49.36-3.78 49.36-19.73 51.7-19.73ZM62.78-19.73L62.78-3.78 60.37-3.78 60.37-19.73 62.78-19.73ZM107.1-25.24L107.1-22.82 73.3-22.82 73.3-25.24 85.64-25.24 85.64-28.58 94.75-28.58 94.75-25.24 107.1-25.24ZM84.24 3.13L85.64 3.13 85.64-7.56 75.02-7.56 75.02-20.2 103.14-20.2Q104.04-20.2 104.71-19.53 105.37-18.86 105.37-17.93L105.37-17.93 105.37-7.56 94.75-7.56 94.75 5.72 84.24 5.72 84.24 3.13ZM84.1-17.78L84.1-9.94 96.3-9.94 96.3-17.03Q96.3-17.78 95.54-17.78L95.54-17.78 84.1-17.78ZM73.19 5.72L76.36-5.4 84.28-5.4 81.36 5.72 73.19 5.72ZM95.87-5.4L103.82-5.4 106.99 5.72 98.78 5.72 95.87-5.4ZM142.92-25.06L133.13-25.06 133.13-18.61 139.86-18.61Q140.76-18.61 141.43-17.95 142.09-17.28 142.09-16.34L142.09-16.34 142.09 5.69 110.12 5.69 110.12-18.61 119.56-18.61 119.84-25.06 109.3-25.06 109.3-27.5 142.92-27.5 142.92-25.06ZM125.42-18.61L127.4-18.61 127.4-25.06 125.75-25.06 125.42-18.61ZM134.46 3.28L134.46-2.38 127.4-2.38 127.4-16.16 125.28-16.16 124.56-2.38 118.8-2.38 119.41-16.16 117.76-16.16 117.76 3.28 134.46 3.28ZM133.7-16.16L133.13-16.16 133.13-5.04 134.46-5.04 134.46-15.41Q134.46-16.16 133.7-16.16L133.7-16.16Z" transform="translate(-0.8300000429153442, 28.8700008392334)"></path></g> <!----> <!----> <!----> <!----> <!----> <!----> <!----></g></g> <g data-gra="path-slogan" fill-rule="" class="tp-slogan iconsvg-slogansvg" fill="#0064d2" transform="translate(5,45.59000015258789)"><rect x="0" height="1" y="3.9750003814697266" width="4.944995880126953"></rect> <rect height="1" y="3.9750003814697266" width="4.944995880126953" x="127.14500045776367"></rect> <g transform="translate(7.944995880126953,0)"><g transform="scale(1)"><path d="M1.73-1.03L7.03-1.03L7.03 0L0.28 0L0.28-0.94L5.53-7.59L0.66-7.59L0.66-8.58L7.03-8.58L7.03-7.59L1.73-1.03ZM9.33-5.06L13.83-5.06L13.83-8.58L15-8.58L15 0L13.83 0L13.83-3.98L9.33-3.98L9.33 0L8.16 0L8.16-8.58L9.33-8.58L9.33-5.06ZM18.09-1.03L23.25-1.03L23.25 0L16.92 0L16.92-8.58L23.16-8.58L23.16-7.59L18.09-7.59L18.09-4.92L22.78-4.92L22.78-3.89L18.09-3.89L18.09-1.03ZM26.16-8.58L30.47-1.64L30.47-8.58L31.59-8.58L31.59 0L30.28 0L25.92-6.94L25.88-6.94L25.88 0L24.75 0L24.75-8.58L26.16-8.58ZM39.80-3.61L37.17-3.61L37.17-4.59L40.92-4.59L40.92 0L40.17 0L39.89-1.08Q38.91 0.09 37.08 0.14L37.08 0.14Q35.34 0.14 34.41-0.75L34.41-0.75Q33-2.06 33.05-4.36L33.05-4.36Q33.38-8.63 37.13-8.81L37.13-8.81Q40.31-8.63 40.78-6L40.78-6L39.66-6Q39.19-7.78 37.08-7.83L37.08-7.83Q34.41-7.64 34.27-4.31L34.27-4.31Q34.27-0.75 37.13-0.75L37.13-0.75Q38.16-0.75 38.91-1.31L38.91-1.31Q39.84-2.06 39.80-3.61L39.80-3.61ZM43.55-1.03L48.84-1.03L48.84 0L42.09 0L42.09-0.94L47.34-7.59L42.47-7.59L42.47-8.58L48.84-8.58L48.84-7.59L43.55-1.03ZM51.14-5.06L55.64-5.06L55.64-8.58L56.81-8.58L56.81 0L55.64 0L55.64-3.98L51.14-3.98L51.14 0L49.97 0L49.97-8.58L51.14-8.58L51.14-5.06ZM65.39-4.27L65.39-4.27Q65.20-7.64 62.39-7.83L62.39-7.83Q59.53-7.69 59.39-4.27L59.39-4.27Q59.53-0.94 62.39-0.80L62.39-0.80Q65.20-0.98 65.39-4.27ZM66.56-4.27L66.56-4.27Q66.28 0 62.39 0.14L62.39 0.14Q58.45 0 58.17-4.27L58.17-4.27Q58.41-8.72 62.39-8.81L62.39-8.81Q66.28-8.67 66.56-4.27ZM73.59-3.19L73.59-8.58L74.77-8.58L74.77-3.05Q74.63 0.05 71.25 0.14L71.25 0.14Q68.11 0.05 67.97-2.86L67.97-2.86L67.97-8.58L69.14-8.58L69.14-3.19Q69.19-0.84 71.30-0.80L71.30-0.80Q73.59-0.84 73.59-3.19L73.59-3.19ZM79.17-1.92L79.17-2.77L80.25-2.77L80.25-2.16Q80.25-0.75 81.56-0.75L81.56-0.75Q82.92-0.75 82.92-2.25L82.92-2.25L82.92-8.58L84.09-8.58L84.09-2.30Q84.05 0.09 81.61 0.14L81.61 0.14Q79.31 0.09 79.17-1.92L79.17-1.92ZM86.06-8.58L87.23-8.58L87.23 0L86.06 0L86.06-8.58ZM90.61-8.58L94.92-1.64L94.92-8.58L96.05-8.58L96.05 0L94.73 0L90.38-6.94L90.33-6.94L90.33 0L89.20 0L89.20-8.58L90.61-8.58ZM104.25-3.61L101.63-3.61L101.63-4.59L105.38-4.59L105.38 0L104.63 0L104.34-1.08Q103.36 0.09 101.53 0.14L101.53 0.14Q99.80 0.14 98.86-0.75L98.86-0.75Q97.45-2.06 97.50-4.36L97.50-4.36Q97.83-8.63 101.58-8.81L101.58-8.81Q104.77-8.63 105.23-6L105.23-6L104.11-6Q103.64-7.78 101.53-7.83L101.53-7.83Q98.86-7.64 98.72-4.31L98.72-4.31Q98.72-0.75 101.58-0.75L101.58-0.75Q102.61-0.75 103.36-1.31L103.36-1.31Q104.30-2.06 104.25-3.61L104.25-3.61ZM113.91-8.58L111-4.41L114.05 0L112.59 0L110.25-3.52L107.91 0L106.50 0L109.59-4.41L106.69-8.58L108.14-8.58L110.30-5.30L112.50-8.58L113.91-8.58ZM115.31-8.58L116.48-8.58L116.48 0L115.31 0L115.31-8.58Z" transform="translate(-0.28125, 8.8125)"></path></g></g></g></g></g><defs v-gra="od"></defs></svg>